<mxfile host="app.diagrams.net" modified="2020-10-17T19:35:58.893Z" agent="5.0 (Windows)" etag="iG176nBtsmWraW46QIeZ" version="13.8.0" type="github">
  <diagram id="prtHgNgQTEPvFCAcTncT" name="Page-1">
    <mxGraphModel dx="868" dy="479" grid="1" gridSize="10" guides="1" tooltips="1" connect="1" arrows="1" fold="1" page="1" pageScale="1" pageWidth="827" pageHeight="1169" math="0" shadow="0">
      <root>
        <mxCell id="0" />
        <mxCell id="1" parent="0" />
        <mxCell id="lvqmQsu-ENCl8p0R73gI-1" value="&lt;font size=&quot;3&quot;&gt;User&lt;/font&gt;" style="rounded=0;whiteSpace=wrap;html=1;" vertex="1" parent="1">
          <mxGeometry x="180" y="80" width="180" height="30" as="geometry" />
        </mxCell>
        <mxCell id="lvqmQsu-ENCl8p0R73gI-2" value="&lt;font size=&quot;3&quot;&gt;System&lt;/font&gt;" style="rounded=0;whiteSpace=wrap;html=1;" vertex="1" parent="1">
          <mxGeometry x="360" y="80" width="180" height="30" as="geometry" />
        </mxCell>
        <mxCell id="lvqmQsu-ENCl8p0R73gI-3" value="Pool" style="rounded=0;whiteSpace=wrap;html=1;" vertex="1" parent="1">
          <mxGeometry x="180" y="50" width="360" height="30" as="geometry" />
        </mxCell>
        <mxCell id="lvqmQsu-ENCl8p0R73gI-4" value="" style="rounded=0;whiteSpace=wrap;html=1;" vertex="1" parent="1">
          <mxGeometry x="180" y="110" width="180" height="610" as="geometry" />
        </mxCell>
        <mxCell id="lvqmQsu-ENCl8p0R73gI-5" value="" style="rounded=0;whiteSpace=wrap;html=1;" vertex="1" parent="1">
          <mxGeometry x="360" y="110" width="180" height="610" as="geometry" />
        </mxCell>
        <mxCell id="lvqmQsu-ENCl8p0R73gI-6" value="&lt;div&gt;&lt;font style=&quot;font-size: 18px&quot;&gt;User&lt;/font&gt;&lt;/div&gt;&lt;div&gt;&lt;font style=&quot;font-size: 18px&quot;&gt;Input&lt;br&gt;&lt;/font&gt;&lt;/div&gt;" style="rounded=1;whiteSpace=wrap;html=1;" vertex="1" parent="1">
          <mxGeometry x="210" y="160" width="120" height="60" as="geometry" />
        </mxCell>
        <mxCell id="lvqmQsu-ENCl8p0R73gI-18" style="edgeStyle=orthogonalEdgeStyle;rounded=0;orthogonalLoop=1;jettySize=auto;html=1;" edge="1" parent="1" source="lvqmQsu-ENCl8p0R73gI-7" target="lvqmQsu-ENCl8p0R73gI-10">
          <mxGeometry relative="1" as="geometry" />
        </mxCell>
        <mxCell id="lvqmQsu-ENCl8p0R73gI-7" value="&lt;font style=&quot;font-size: 18px&quot;&gt;Tokenization&lt;/font&gt;" style="rounded=1;whiteSpace=wrap;html=1;" vertex="1" parent="1">
          <mxGeometry x="390" y="160" width="120" height="60" as="geometry" />
        </mxCell>
        <mxCell id="lvqmQsu-ENCl8p0R73gI-9" value="" style="endArrow=classic;html=1;exitX=1;exitY=0.5;exitDx=0;exitDy=0;entryX=0;entryY=0.5;entryDx=0;entryDy=0;" edge="1" parent="1" source="lvqmQsu-ENCl8p0R73gI-6" target="lvqmQsu-ENCl8p0R73gI-7">
          <mxGeometry width="50" height="50" relative="1" as="geometry">
            <mxPoint x="335" y="165" as="sourcePoint" />
            <mxPoint x="385" y="115" as="targetPoint" />
          </mxGeometry>
        </mxCell>
        <mxCell id="lvqmQsu-ENCl8p0R73gI-19" style="edgeStyle=orthogonalEdgeStyle;rounded=0;orthogonalLoop=1;jettySize=auto;html=1;" edge="1" parent="1" source="lvqmQsu-ENCl8p0R73gI-10" target="lvqmQsu-ENCl8p0R73gI-11">
          <mxGeometry relative="1" as="geometry" />
        </mxCell>
        <mxCell id="lvqmQsu-ENCl8p0R73gI-10" value="&lt;div&gt;&lt;font style=&quot;font-size: 18px&quot;&gt;Embedding&lt;/font&gt;&lt;/div&gt;&lt;div&gt;&lt;font style=&quot;font-size: 18px&quot;&gt;Layer&lt;/font&gt;&lt;br&gt;&lt;/div&gt;" style="rounded=1;whiteSpace=wrap;html=1;strokeColor=#000000;fillColor=#FFFFFF;" vertex="1" parent="1">
          <mxGeometry x="390" y="250" width="120" height="60" as="geometry" />
        </mxCell>
        <mxCell id="lvqmQsu-ENCl8p0R73gI-20" style="edgeStyle=orthogonalEdgeStyle;rounded=0;orthogonalLoop=1;jettySize=auto;html=1;" edge="1" parent="1" source="lvqmQsu-ENCl8p0R73gI-11" target="lvqmQsu-ENCl8p0R73gI-12">
          <mxGeometry relative="1" as="geometry" />
        </mxCell>
        <mxCell id="lvqmQsu-ENCl8p0R73gI-11" value="&lt;div&gt;&lt;font style=&quot;font-size: 18px&quot;&gt;BiDAF&lt;/font&gt;&lt;/div&gt;&lt;div&gt;&lt;font style=&quot;font-size: 18px&quot;&gt;Layer&lt;/font&gt;&lt;br&gt;&lt;/div&gt;" style="rounded=1;whiteSpace=wrap;html=1;strokeColor=#000000;fillColor=#FFFFFF;" vertex="1" parent="1">
          <mxGeometry x="390" y="340" width="120" height="60" as="geometry" />
        </mxCell>
        <mxCell id="lvqmQsu-ENCl8p0R73gI-21" style="edgeStyle=orthogonalEdgeStyle;rounded=0;orthogonalLoop=1;jettySize=auto;html=1;" edge="1" parent="1" source="lvqmQsu-ENCl8p0R73gI-12" target="lvqmQsu-ENCl8p0R73gI-13">
          <mxGeometry relative="1" as="geometry" />
        </mxCell>
        <mxCell id="lvqmQsu-ENCl8p0R73gI-12" value="&lt;div&gt;&lt;font style=&quot;font-size: 18px&quot;&gt;Modelling&lt;/font&gt;&lt;/div&gt;&lt;div&gt;&lt;font style=&quot;font-size: 18px&quot;&gt;Layer&lt;/font&gt;&lt;br&gt;&lt;/div&gt;" style="rounded=1;whiteSpace=wrap;html=1;strokeColor=#000000;fillColor=#FFFFFF;" vertex="1" parent="1">
          <mxGeometry x="390" y="430" width="120" height="60" as="geometry" />
        </mxCell>
        <mxCell id="lvqmQsu-ENCl8p0R73gI-22" style="edgeStyle=orthogonalEdgeStyle;rounded=0;orthogonalLoop=1;jettySize=auto;html=1;" edge="1" parent="1" source="lvqmQsu-ENCl8p0R73gI-13" target="lvqmQsu-ENCl8p0R73gI-14">
          <mxGeometry relative="1" as="geometry" />
        </mxCell>
        <mxCell id="lvqmQsu-ENCl8p0R73gI-13" value="&lt;div&gt;&lt;font style=&quot;font-size: 18px&quot;&gt;Output&lt;/font&gt;&lt;/div&gt;&lt;div&gt;&lt;font style=&quot;font-size: 18px&quot;&gt;Layer&lt;/font&gt;&lt;br&gt;&lt;/div&gt;" style="rounded=1;whiteSpace=wrap;html=1;strokeColor=#000000;fillColor=#FFFFFF;" vertex="1" parent="1">
          <mxGeometry x="390" y="520" width="120" height="60" as="geometry" />
        </mxCell>
        <mxCell id="lvqmQsu-ENCl8p0R73gI-14" value="&lt;div&gt;&lt;font style=&quot;font-size: 18px&quot;&gt;View&lt;/font&gt;&lt;/div&gt;&lt;div&gt;&lt;font style=&quot;font-size: 18px&quot;&gt;Output&lt;/font&gt;&lt;br&gt;&lt;/div&gt;" style="rounded=1;whiteSpace=wrap;html=1;strokeColor=#000000;fillColor=#FFFFFF;" vertex="1" parent="1">
          <mxGeometry x="390" y="610" width="120" height="60" as="geometry" />
        </mxCell>
        <mxCell id="lvqmQsu-ENCl8p0R73gI-17" style="edgeStyle=orthogonalEdgeStyle;rounded=0;orthogonalLoop=1;jettySize=auto;html=1;" edge="1" parent="1" source="lvqmQsu-ENCl8p0R73gI-15" target="lvqmQsu-ENCl8p0R73gI-6">
          <mxGeometry relative="1" as="geometry" />
        </mxCell>
        <mxCell id="lvqmQsu-ENCl8p0R73gI-15" value="" style="ellipse;whiteSpace=wrap;html=1;aspect=fixed;fillColor=#000000;strokeColor=#FF0000;" vertex="1" parent="1">
          <mxGeometry x="260" y="120" width="20" height="20" as="geometry" />
        </mxCell>
        <mxCell id="lvqmQsu-ENCl8p0R73gI-16" value="" style="ellipse;whiteSpace=wrap;html=1;aspect=fixed;fillColor=#000000;strokeColor=#FF0000;" vertex="1" parent="1">
          <mxGeometry x="440" y="690" width="20" height="20" as="geometry" />
        </mxCell>
        <mxCell id="lvqmQsu-ENCl8p0R73gI-27" value="" style="endArrow=classic;html=1;exitX=0.5;exitY=1;exitDx=0;exitDy=0;entryX=0.5;entryY=0;entryDx=0;entryDy=0;" edge="1" parent="1" source="lvqmQsu-ENCl8p0R73gI-14" target="lvqmQsu-ENCl8p0R73gI-16">
          <mxGeometry width="50" height="50" relative="1" as="geometry">
            <mxPoint x="110" y="770" as="sourcePoint" />
            <mxPoint x="160" y="720" as="targetPoint" />
          </mxGeometry>
        </mxCell>
      </root>
    </mxGraphModel>
  </diagram>
</mxfile>
